<svg width="26" height="22" viewBox="0 0 30 26" fill="none" xmlns="http://www.w3.org/2000/svg">
<path d="M27.5062 15.3014L29.9684 4.73886C30.1461 3.97622 29.5516 3.25 28.7495 3.25H8.29208L7.81469 0.974492C7.69573 0.407316 7.18385 0 6.59005 0H1.25C0.559635 0 0 0.545645 0 1.21875V2.03125C0 2.70436 0.559635 3.25 1.25 3.25H4.88974L8.54849 20.6901C7.67318 21.1809 7.08333 22.1011 7.08333 23.1562C7.08333 24.7268 8.38917 26 10 26C11.6108 26 12.9167 24.7268 12.9167 23.1562C12.9167 22.3603 12.5809 21.6412 12.0404 21.125H22.9595C22.4191 21.6412 22.0833 22.3603 22.0833 23.1562C22.0833 24.7268 23.3892 26 25 26C26.6108 26 27.9167 24.7268 27.9167 23.1562C27.9167 22.0303 27.2454 21.0574 26.2719 20.5966L26.5593 19.3639C26.737 18.6012 26.1425 17.875 25.3404 17.875H11.3603L11.0194 16.25H26.2873C26.871 16.25 27.3769 15.8562 27.5062 15.3014Z" fill="white"/>
</svg>
