<svg width="174" height="46" viewBox="0 0 174 46" fill="none" xmlns="http://www.w3.org/2000/svg">
<path d="M57 16.875V18.125C57 19.1605 55.9367 20 54.625 20H53.8333L51.2492 34.2803C50.915 36.1277 48.9108 37.5 46.547 37.5H10.453C8.08915 37.5 6.08505 36.1277 5.75067 34.2803L3.16667 20H2.375C1.06331 20 0 19.1605 0 18.125V16.875C0 15.8394 1.06331 15 2.375 15H9.03895L19.6057 3.52959C20.6344 2.41302 22.6148 2.16607 24.0293 2.97818C25.4437 3.79029 25.7564 5.3538 24.7277 6.47045L16.8701 15H40.1299L32.2723 6.47037C31.2436 5.3538 31.5564 3.79021 32.9708 2.9781C34.3851 2.16599 36.3657 2.41287 37.3944 3.52951L47.961 15H54.625C55.9367 15 57 15.8394 57 16.875ZM30.875 30.625V21.875C30.875 20.8394 29.8117 20 28.5 20C27.1883 20 26.125 20.8394 26.125 21.875V30.625C26.125 31.6605 27.1883 32.5 28.5 32.5C29.8117 32.5 30.875 31.6605 30.875 30.625ZM41.9583 30.625V21.875C41.9583 20.8394 40.895 20 39.5833 20C38.2716 20 37.2083 20.8394 37.2083 21.875V30.625C37.2083 31.6605 38.2716 32.5 39.5833 32.5C40.895 32.5 41.9583 31.6605 41.9583 30.625ZM19.7917 30.625V21.875C19.7917 20.8394 18.7284 20 17.4167 20C16.105 20 15.0417 20.8394 15.0417 21.875V30.625C15.0417 31.6605 16.105 32.5 17.4167 32.5C18.7284 32.5 19.7917 31.6605 19.7917 30.625Z" fill="#21ABBE"/>
<path d="M69.016 18.936H73.384V34H69.016V18.936ZM71.2 16.836C70.3973 16.836 69.744 16.6027 69.24 16.136C68.736 15.6693 68.484 15.0907 68.484 14.4C68.484 13.7093 68.736 13.1307 69.24 12.664C69.744 12.1973 70.3973 11.964 71.2 11.964C72.0027 11.964 72.656 12.188 73.16 12.636C73.664 13.084 73.916 13.644 73.916 14.316C73.916 15.044 73.664 15.6507 73.16 16.136C72.656 16.6027 72.0027 16.836 71.2 16.836ZM83.9671 34.336C82.4178 34.336 80.9151 34.1307 79.4591 33.72C78.0218 33.2907 76.8645 32.74 75.9871 32.068L77.5271 28.652C78.3671 29.268 79.3658 29.7627 80.5231 30.136C81.6805 30.5093 82.8378 30.696 83.9951 30.696C85.2831 30.696 86.2351 30.5093 86.8511 30.136C87.4671 29.744 87.7751 29.2307 87.7751 28.596C87.7751 28.1293 87.5885 27.7467 87.2151 27.448C86.8605 27.1307 86.3938 26.8787 85.8151 26.692C85.2551 26.5053 84.4898 26.3 83.5191 26.076C82.0258 25.7213 80.8031 25.3667 79.8511 25.012C78.8991 24.6573 78.0778 24.088 77.3871 23.304C76.7151 22.52 76.3791 21.4747 76.3791 20.168C76.3791 19.0293 76.6871 18.0027 77.3031 17.088C77.9191 16.1547 78.8431 15.4173 80.0751 14.876C81.3258 14.3347 82.8471 14.064 84.6391 14.064C85.8898 14.064 87.1125 14.2133 88.3071 14.512C89.5018 14.8107 90.5471 15.24 91.4431 15.8L90.0431 19.244C88.2325 18.2173 86.4218 17.704 84.6111 17.704C83.3418 17.704 82.3991 17.9093 81.7831 18.32C81.1858 18.7307 80.8871 19.272 80.8871 19.944C80.8871 20.616 81.2325 21.12 81.9231 21.456C82.6325 21.7733 83.7058 22.0907 85.1431 22.408C86.6365 22.7627 87.8591 23.1173 88.8111 23.472C89.7631 23.8267 90.5751 24.3867 91.2471 25.152C91.9378 25.9173 92.2831 26.9533 92.2831 28.26C92.2831 29.38 91.9658 30.4067 91.3311 31.34C90.7151 32.2547 89.7818 32.9827 88.5311 33.524C87.2805 34.0653 85.7591 34.336 83.9671 34.336ZM104.231 18.712C106.097 18.712 107.6 19.272 108.739 20.392C109.896 21.512 110.475 23.1733 110.475 25.376V34H106.107V26.048C106.107 24.8533 105.845 23.9667 105.323 23.388C104.8 22.7907 104.044 22.492 103.055 22.492C101.953 22.492 101.076 22.8373 100.423 23.528C99.7693 24.2 99.4426 25.208 99.4426 26.552V34H95.0746V13.224H99.4426V20.504C100.021 19.9253 100.721 19.4867 101.543 19.188C102.364 18.8707 103.26 18.712 104.231 18.712ZM121.766 34.224C120.179 34.224 118.751 33.8973 117.482 33.244C116.231 32.572 115.251 31.648 114.542 30.472C113.833 29.296 113.478 27.9613 113.478 26.468C113.478 24.9747 113.833 23.64 114.542 22.464C115.251 21.288 116.231 20.3733 117.482 19.72C118.751 19.048 120.179 18.712 121.766 18.712C123.353 18.712 124.771 19.048 126.022 19.72C127.273 20.3733 128.253 21.288 128.962 22.464C129.671 23.64 130.026 24.9747 130.026 26.468C130.026 27.9613 129.671 29.296 128.962 30.472C128.253 31.648 127.273 32.572 126.022 33.244C124.771 33.8973 123.353 34.224 121.766 34.224ZM121.766 30.64C122.886 30.64 123.801 30.2667 124.51 29.52C125.238 28.7547 125.602 27.7373 125.602 26.468C125.602 25.1987 125.238 24.1907 124.51 23.444C123.801 22.6787 122.886 22.296 121.766 22.296C120.646 22.296 119.722 22.6787 118.994 23.444C118.266 24.1907 117.902 25.1987 117.902 26.468C117.902 27.7373 118.266 28.7547 118.994 29.52C119.722 30.2667 120.646 30.64 121.766 30.64ZM141.85 18.712C143.25 18.712 144.519 19.0387 145.658 19.692C146.815 20.3267 147.72 21.232 148.374 22.408C149.027 23.5653 149.354 24.9187 149.354 26.468C149.354 28.0173 149.027 29.38 148.374 30.556C147.72 31.7133 146.815 32.6187 145.658 33.272C144.519 33.9067 143.25 34.224 141.85 34.224C139.927 34.224 138.415 33.6173 137.314 32.404V39.432H132.946V18.936H137.118V20.672C138.2 19.3653 139.778 18.712 141.85 18.712ZM141.094 30.64C142.214 30.64 143.128 30.2667 143.838 29.52C144.566 28.7547 144.93 27.7373 144.93 26.468C144.93 25.1987 144.566 24.1907 143.838 23.444C143.128 22.6787 142.214 22.296 141.094 22.296C139.974 22.296 139.05 22.6787 138.322 23.444C137.612 24.1907 137.258 25.1987 137.258 26.468C137.258 27.7373 137.612 28.7547 138.322 29.52C139.05 30.2667 139.974 30.64 141.094 30.64Z" fill="white"/>
</svg>
